Coordinates
version=1
nRows=14
nColumns=36
inDegrees=yes

Units are S.I. units (second, meters, Newtons, ...)
If the header above contains a line with 'inDegrees', this indicates whether rotational values are in degrees (yes) or radians (no).

endheader
time	pelvis_tilt	pelvis_list	pelvis_rotation	pelvis_tx	pelvis_ty	pelvis_tz	hip_flexion_r	hip_adduction_r	hip_rotation_r	knee_angle_r	knee_angle_r_beta	ankle_angle_r	subtalar_angle_r	mtp_angle_r	hip_flexion_l	hip_adduction_l	hip_rotation_l	knee_angle_l	knee_angle_l_beta	ankle_angle_l	subtalar_angle_l	mtp_angle_l	lumbar_extension	lumbar_bending	lumbar_rotation	arm_flex_r	arm_add_r	arm_rot_r	elbow_flex_r	pro_sup_r	arm_flex_l	arm_add_l	arm_rot_l	elbow_flex_l	pro_sup_l
     10.49000000	    -11.57568423	      1.74597687	      2.07999256	     -0.51389081	      0.57712903	     -0.60603004	     98.30758547	     -9.86559217	      6.25687302	     99.16626635	      1.73077785	     24.36543017	      2.86440103	     -7.49999987	     97.60800829	     -5.91135273	      2.05213874	     96.33583253	      1.68137747	     17.23059297	     -8.28013325	     -7.49999987	    -22.78534208	     -0.73868916	     -4.42354225	     24.02345497	     -8.51366109	     -3.80999314	    121.30199359	    109.07125578	     19.35096221	     -8.54459192	     -7.48036405	    124.25141385	    103.86812116
     10.50000000	    -10.53237091	      1.75182030	      2.10168021	     -0.51797517	      0.57506055	     -0.60656014	     97.89231158	    -10.00949276	      6.29644451	     99.40511689	      1.73494658	     23.95780493	      2.88329064	     -7.49999987	     97.18320995	     -5.81762748	      2.07879933	     96.61496941	      1.68624932	     16.97670610	     -8.37267156	     -7.49999987	    -22.90059932	     -0.60434587	     -4.44176115	     23.44632583	     -8.60353909	     -3.81811976	    121.29213606	    109.05965809	     18.82439713	     -8.44488896	     -7.50690992	    124.23466936	    103.88329740
     10.51000000	     -9.33003380	      1.74198001	      2.13281914	     -0.52221139	      0.57346807	     -0.60700983	     97.24113353	    -10.13244268	      6.33147523	     99.58347438	      1.73805951	     23.47933927	      2.85636292	     -7.49999987	     96.56282462	     -5.75706076	      2.08876941	     96.82676288	      1.68994582	     16.57548710	     -8.45226170	     -7.49999987	    -23.26177665	     -0.44982801	     -4.40748622	     22.91669067	     -8.71496496	     -3.75531126	    121.31058210	    109.04679727	     18.35125626	     -8.29304652	     -7.52590122	    124.24182412	    103.90984722
     10.52000000	     -8.05625484	      1.63364948	      2.08582588	     -0.52652852	      0.57229902	     -0.60713670	     96.43245540	    -10.09355377	      6.26805112	     99.69136435	      1.73994254	     22.98382132	      2.72457346	     -7.49999987	     95.85040904	     -5.85228004	      2.17963251	     96.99629838	      1.69290477	     16.11549627	     -8.51567796	     -7.49999987	    -23.75401857	     -0.20541167	     -4.25632031	     22.40730781	     -8.76713143	     -3.73626928	    121.34195894	    109.03251978	     17.84566089	     -8.10298809	     -7.56114313	    124.19877306	    103.92750678
     10.53000000	     -6.72844022	      1.43532282	      2.03101558	     -0.53082191	      0.57155977	     -0.60713994	     95.49313782	    -10.01042723	      6.10749926	     99.77428874	      1.74138985	     22.43307986	      2.61013371	     -7.49999987	     95.06923127	     -6.00894911	      2.34422686	     97.15759583	      1.69571994	     15.68825635	     -8.51492124	     -7.49999987	    -24.36171330	      0.12186905	     -4.08303449	     21.94932977	     -8.74620083	     -3.81930792	    121.31687646	    109.02528452	     17.35347001	     -7.97266877	     -7.57609341	    124.04486641	    103.90903965
     10.54000000	     -5.36513581	      1.20859674	      2.04238984	     -0.53520478	      0.57158217	     -0.60728779	     94.39330048	    -10.01654234	      5.86262236	     99.72406107	      1.74051321	     21.78938162	      2.47107602	     -7.49999987	     94.14643422	     -6.11951334	      2.49348739	     97.17982502	      1.69610791	     15.24764284	     -8.46278762	     -7.49999987	    -25.12403630	      0.47831893	     -4.00400440	     21.46793677	     -8.70126467	     -3.89168544	    121.23960788	    109.02206226	     16.93872864	     -7.88877017	     -7.51991115	    123.86293136	    103.87857246
     10.55000000	     -4.06480829	      0.99365830	      2.13675759	     -0.53959025	      0.57229438	     -0.60756802	     93.23225936	    -10.08304083	      5.61883009	     99.52635366	      1.73706256	     21.08129286	      2.21369697	     -7.49999987	     93.16385005	     -6.14677638	      2.61211565	     97.06433960	      1.69409231	     14.81850078	     -8.39064179	     -7.49999987	    -25.87845588	      0.81711879	     -3.95813360	     20.85617938	     -8.68619224	     -3.94142838	    121.10637482	    109.01140993	     16.48175771	     -7.68333520	     -7.49225783	    123.75813619	    103.86609238
     10.56000000	     -2.87787748	      0.76766496	      2.24868067	     -0.54385879	      0.57341387	     -0.60794734	     92.09833688	    -10.16374344	      5.34842014	     99.24092793	      1.73208095	     20.40864953	      1.87998099	     -7.49999987	     92.21338736	     -6.15592234	      2.75172627	     96.88856633	      1.69102449	     14.48099216	     -8.32064067	     -7.49999987	    -26.50349037	      1.19556648	     -3.87969462	     20.11206917	     -8.65859764	     -4.07312994	    120.93354062	    108.98367251	     15.79275275	     -7.29239592	     -7.59555350	    123.65358390	    103.87711806
     10.57000000	     -1.78790575	      0.55341650	      2.39953205	     -0.54804495	      0.57471494	     -0.60843102	     90.99017353	    -10.26106075	      5.11175724	     98.92032748	      1.72648541	     19.88255027	      1.59690898	     -7.49999987	     91.30919756	     -6.09516008	      2.91696548	     96.67329262	      1.68726725	     14.24311827	     -8.23823092	     -7.49999987	    -27.03400856	      1.57684223	     -3.82519929	     19.30889656	     -8.55661136	     -4.27666581	    120.74792199	    108.95121873	     14.96570966	     -6.84457413	     -7.70016545	    123.45868003	    103.88811912
     10.58000000	     -0.76356530	      0.42647208	      2.61669284	     -0.55214280	      0.57600223	     -0.60919619	     89.96304988	    -10.45013058	      4.99080672	     98.63067407	      1.72143001	     19.46230695	      1.42639520	     -7.49999987	     90.42787162	     -5.95681646	      2.96552975	     96.42729057	      1.68297371	     14.01929171	     -8.13928192	     -7.49999987	    -27.50368667	      1.90594895	     -3.91104189	     18.46085622	     -8.38551068	     -4.46320696	    120.59232765	    108.92845797	     14.15090111	     -6.49024072	     -7.68993396	    123.19640223	    103.89139213
     10.59000000	      0.27756955	      0.38433749	      2.86951563	     -0.55608270	      0.57746245	     -0.60998760	     88.89953788	    -10.67841946	      4.97688345	     98.35982915	      1.71670287	     19.01809283	      1.30956276	     -7.49999987	     89.47433673	     -5.75853949	      2.95058772	     96.16659469	      1.67842371	     13.72069930	     -8.04351842	     -7.49999987	    -28.01487008	      2.11568744	     -4.05922187	     17.55437688	     -8.20981518	     -4.63354790	    120.45130818	    108.91046281	     13.38413718	     -6.14589936	     -7.63112128	    122.91869296	    103.90028512
     10.60000000	      1.30964150	      0.38788952	      3.02605068	     -0.55988315	      0.57900365	     -0.61038723	     87.85232125	    -10.77528498	      4.99670105	     98.06956202	      1.71163675	     18.58700559	      1.17686345	     -7.49999987	     88.47175087	     -5.68119725	      2.90240557	     95.87034682	      1.67325321	     13.36581216	     -7.96336443	     -7.49999987	    -28.48814834	      2.21791053	     -4.11836862	     16.61372474	     -8.07361112	     -4.74885114	    120.29447390	    108.88991028	     12.60940152	     -5.80573019	     -7.56859064	    122.64735627	    103.90844572
     10.61000000	      1.98353173	      0.37223740	      3.08261125	     -0.56332232	      0.57972442	     -0.61032033	     87.21137609	    -10.67224553	      5.06804873	     97.80292433	      1.70698305	     18.40979172	      1.15511453	     -7.49999987	     87.88311959	     -5.72334983	      2.87794318	     95.61588913	      1.66881208	     13.21479455	     -7.91418489	     -7.49999987	    -28.49376208	      2.23497425	     -4.15844454	     15.50425891	     -7.94236018	     -4.68564127	    120.14803906	    108.88387796	     11.54498784	     -5.56415127	     -7.45564280	    122.47367127	    103.90351964
     10.62000000	      3.28668554	      0.46749450	      3.10431720	     -0.56726109	      0.58182329	     -0.61013619	     85.85230820	    -10.64558664	      5.07290818	     97.40987791	      1.70012309	     17.48509190	      0.94995312	     -7.49999987	     86.49340649	     -5.85549696	      2.71228597	     95.21404500	      1.66179858	     12.53102928	     -7.82047966	     -7.49999987	    -29.33931064	      2.15480017	     -4.07363194	     14.81021909	     -7.74690538	     -4.98835898	    119.94827724	    108.85364059	     11.04616314	     -5.41977633	     -7.29910482	    122.05291660	    103.87048523
